<svg xmlns="http://www.w3.org/2000/svg" width="64" height="78" fill="none"><mask id="a" width="64" height="78" x="0" y="0" fill="#000" maskUnits="userSpaceOnUse"><path fill="#fff" d="M0 0h64v78H0z"/><path fill-rule="evenodd" d="M2 18C2 9.163 9.163 2 18 2h28c8.837 0 16 7.163 16 16v28c0 8.837-7.163 16-16 16h-7.654q-.172.003-.346.003c-3.548 0-3.959 2.059-4.3 3.764-.24 1.207-.446 2.236-1.7 2.236-1.27 0-1.507-1.054-1.784-2.28-.383-1.696-.84-3.72-4.216-3.72q-.174 0-.346-.003H18C9.163 62 2 54.837 2 46zm30 58a3 3 0 1 0 0-6 3 3 0 0 0 0 6" clip-rule="evenodd"/></mask><path fill="#3885E3" fill-rule="evenodd" d="M2 18C2 9.163 9.163 2 18 2h28c8.837 0 16 7.163 16 16v28c0 8.837-7.163 16-16 16h-7.654q-.172.003-.346.003c-3.548 0-3.959 2.059-4.3 3.764-.24 1.207-.446 2.236-1.7 2.236-1.27 0-1.507-1.054-1.784-2.28-.383-1.696-.84-3.72-4.216-3.72q-.174 0-.346-.003H18C9.163 62 2 54.837 2 46zm30 58a3 3 0 1 0 0-6 3 3 0 0 0 0 6" clip-rule="evenodd"/><path fill="#E8E8E8" d="M38.346 62v-2h-.034zm-4.645 3.767 1.961.392zm-3.485-.043 1.951-.44zM25.654 62l.034-2h-.034zM18 0C8.059 0 0 8.059 0 18h4c0-7.732 6.268-14 14-14zm28 0H18v4h28zm18 18c0-9.941-8.059-18-18-18v4c7.732 0 14 6.268 14 14zm0 28V18h-4v28zM46 64c9.941 0 18-8.059 18-18h-4c0 7.732-6.268 14-14 14zm-7.654 0H46v-4h-7.654zm-.346.003q.19 0 .38-.003l-.068-4q-.154.003-.312.003zm-2.338 2.156c.188-.944.313-1.375.54-1.656.104-.127.437-.5 1.798-.5v-4c-2.187 0-3.833.657-4.907 1.985-.95 1.175-1.202 2.626-1.354 3.388zM32 70.003a3.5 3.5 0 0 0 1.762-.448c.562-.325.941-.773 1.196-1.21.443-.758.605-1.693.704-2.186l-3.923-.783c-.063.317-.108.536-.159.722-.05.186-.082.24-.077.231a.7.7 0 0 1 .257-.237c.161-.093.274-.09.24-.09zm-3.735-3.839c.115.508.303 1.441.76 2.196.262.43.644.871 1.203 1.193.56.322 1.17.45 1.772.45v-4c-.033 0 .072-.004.222.082a.66.66 0 0 1 .224.2c.002.004-.009-.013-.028-.06a2 2 0 0 1-.069-.201c-.057-.193-.11-.42-.182-.74zM26 64.003c1.249 0 1.567.348 1.68.486.237.293.374.739.585 1.675l3.902-.88c-.172-.761-.455-2.176-1.385-3.319-1.056-1.298-2.655-1.962-4.782-1.962zM25.62 64q.19.003.38.003v-4q-.157 0-.312-.003zM18 64h7.654v-4H18zM0 46c0 9.941 8.059 18 18 18v-4c-7.732 0-14-6.268-14-14zm0-28v28h4V18zm33 55a1 1 0 0 1-1 1v4a5 5 0 0 0 5-5zm-1-1a1 1 0 0 1 1 1h4a5 5 0 0 0-5-5zm-1 1a1 1 0 0 1 1-1v-4a5 5 0 0 0-5 5zm1 1a1 1 0 0 1-1-1h-4a5 5 0 0 0 5 5z" mask="url(#a)"/><path fill="#3885E3" d="M16 21a4 4 0 0 1 4-4h24a4 4 0 0 1 4 4v24a4 4 0 0 1-4 4H20a4 4 0 0 1-4-4z"/><path fill="#E8E8E8" fill-rule="evenodd" d="M27 43h10a2 2 0 0 0 2 2h1a2 2 0 0 0 2-2V25a4 4 0 0 0-4-4H26a4 4 0 0 0-4 4v18a2 2 0 0 0 2 2h1a2 2 0 0 0 2-2m-3-8h16V25H24zm4 4a2 2 0 1 1-4 0 2 2 0 0 1 4 0m10 2a2 2 0 1 0 0-4 2 2 0 0 0 0 4" clip-rule="evenodd"/></svg>